<?xml version="1.0" encoding="utf-8"?>
<!-- Generator: Adobe Illustrator 26.0.3, SVG Export Plug-In . SVG Version: 6.00 Build 0)  -->
<svg version="1.1" id="Layer_1" xmlns="http://www.w3.org/2000/svg" xmlns:xlink="http://www.w3.org/1999/xlink" x="0px" y="0px"
	 viewBox="0 0 32 32" style="enable-background:new 0 0 32 32;" xml:space="preserve">
<style type="text/css">
	.st0{fill:#005696;}
	.st1{fill:#E02028;}
</style>
<path class="st0" d="M12.7,25.3c-4.5-2.1-7.5-5.7-8.4-9.6c-0.4-2.2,0.3-3.7,0.9-4.5c0.6-0.9,1.2-0.9,1.2-0.9S5.7,9.9,4.8,9.8
	c-1.2-0.2-2.7,0-3.6,1.4C0.4,12.9,0,14.7,0,16.6c0,3.7,1.4,8,5.7,11.4c1.2,0.9,2.5,1.6,4,2.1c0.2,0.1,0.4,0.1,0.6,0.2
	c0.6,0.2,1.2,0.3,1.8,0.4c0,0,0.1,0,0.1,0c0.2,0,0.4,0,0.5,0.1c0.3,0,0.5,0,0.8,0.1c0.1,0,0.3,0,0.4,0c0,0,0.1,0,0.1,0
	c0.3,0,0.5,0,0.8,0c0,0,0,0,0,0c0.3,0,0.5,0,0.8-0.1c0,0,0.1,0,0.1,0c0.2,0,0.4-0.1,0.6-0.1c0.1,0,0.3,0,0.4-0.1c0,0,0,0,0.1,0
	c2.4-0.5,4.3-1.6,5.8-2.7c0.9-0.7,1.7-1.5,2.4-2.3C21.6,27.2,17,27.3,12.7,25.3"/>
<path class="st0" d="M5.1,8.8c2.4-3.1,6.2-5.1,10.4-5.1c3.1,0,6,1.1,8.3,2.9c-2.5-2.4-5.9-3.8-9.7-3.8c-4.9,0-9.3,2.5-11.8,6.4
	C3,8.8,4.1,8.6,5.1,8.8"/>
<path class="st0" d="M13.4,24.2c1.8,1,3.7,1.6,5.6,1.7c0.8-0.2,1.6-0.5,2.3-0.9C24,23.4,32,12.3,32,12.3s-4.4-0.9-6.3,0.5
	c-1.9,1.4-3.3,3.6-5.4,6c-2.1,2.4-3,3.9-4.9,4.3c-1.4,0.4-2.7,0.3-3.9,0C12.1,23.4,12.7,23.8,13.4,24.2"/>
<path class="st1" d="M26.4,24.7c1.7-1.2,5.6-6.6,5.6-6.6s-3-1.6-5.7,0c-2.7,1.6-2.7,2-5.4,4.2c-2.7,2.2-4.7,2.5-6.2,2.4
	c-0.1,0-0.2,0-0.2,0C18.3,26.5,23.4,26.8,26.4,24.7"/>
<path class="st0" d="M32,2.7c0,0-4.3-1.2-7.8,1.8c-2.5,2.1-7.8,16.5-12,17.3c-0.8,0.2-1.5,0.2-2,0.1c0,0,0,0,0,0
	c0.7,0.1,1.5,0,2.5-0.1C16.9,21.1,22.4,7.8,25,5.8c2.6-2,5.7-1.5,5.7-1.5l-2.6,4.6L32,2.7z"/>
<path class="st0" d="M12.7,25.3c-4.5-2.1-7.5-5.7-8.4-9.6c-0.4-2.2,0.3-3.7,0.9-4.5c0.6-0.9,1.2-0.9,1.2-0.9S5.7,9.9,4.8,9.8
	c-1.2-0.2-2.7,0-3.6,1.4C0.4,12.9,0,14.7,0,16.6c0,3.7,1.4,8,5.7,11.4c1.2,0.9,2.5,1.6,4,2.1c0.2,0.1,0.4,0.1,0.6,0.2
	c0.6,0.2,1.2,0.3,1.8,0.4c0,0,0.1,0,0.1,0c0.2,0,0.4,0,0.5,0.1c0.3,0,0.5,0,0.8,0.1c0.1,0,0.3,0,0.4,0c0,0,0.1,0,0.1,0
	c0.3,0,0.5,0,0.8,0c0,0,0,0,0,0c0.3,0,0.5,0,0.8-0.1c0,0,0.1,0,0.1,0c0.2,0,0.4-0.1,0.6-0.1c0.1,0,0.3,0,0.4-0.1c0,0,0,0,0.1,0
	c2.4-0.5,4.3-1.6,5.8-2.7c0.9-0.7,1.7-1.5,2.4-2.3C21.6,27.2,17,27.3,12.7,25.3"/>
<path class="st0" d="M5.1,8.8c2.4-3.1,6.2-5.1,10.4-5.1c3.1,0,6,1.1,8.3,2.9c-2.5-2.4-5.9-3.8-9.7-3.8c-4.9,0-9.3,2.5-11.8,6.4
	C3,8.8,4.1,8.6,5.1,8.8"/>
<path class="st0" d="M13.4,24.2c1.8,1,3.7,1.6,5.6,1.7c0.8-0.2,1.6-0.5,2.3-0.9C24,23.4,32,12.3,32,12.3s-4.4-0.9-6.3,0.5
	c-1.9,1.4-3.3,3.6-5.4,6c-2.1,2.4-3,3.9-4.9,4.3c-1.4,0.4-2.7,0.3-3.9,0C12.1,23.4,12.7,23.8,13.4,24.2"/>
<path class="st1" d="M26.4,24.7c1.7-1.2,5.6-6.6,5.6-6.6s-3-1.6-5.7,0c-2.7,1.6-2.7,2-5.4,4.2c-2.7,2.2-4.7,2.5-6.2,2.4
	c-0.1,0-0.2,0-0.2,0C18.3,26.5,23.4,26.8,26.4,24.7"/>
<path class="st0" d="M32,2.7c0,0-4.3-1.2-7.8,1.8c-2.5,2.1-7.8,16.5-12,17.3c-0.8,0.2-1.5,0.2-2,0.1c0,0,0,0,0,0
	c0.7,0.1,1.5,0,2.5-0.1C16.9,21.1,22.4,7.8,25,5.8c2.6-2,5.7-1.5,5.7-1.5l-2.6,4.6L32,2.7z"/>
</svg>
